<svg width="267" height="304" viewBox="0 0 267 304" fill="none" xmlns="http://www.w3.org/2000/svg">
    <g filter="url(#filter0_i)">
        <path fill-rule="evenodd" clip-rule="evenodd" d="M140.5 261C200.423 261 249 212.423 249 152.5C249 92.5771 200.423 44 140.5 44C80.5771 44 32 92.5771 32 152.5C32 212.423 80.5771 261 140.5 261ZM198.5 100L141 104.5L82 128V144L116.5 184L155 219.5L175 207L189 149L198.5 100Z" fill="#975E92"/>
    </g>
    <path d="M190 100C159.5 93.5 -2.00012 144 9.49981 195C10.8331 199.167 21.8998 207.2 55.4998 206" stroke="#944682" stroke-width="17"/>
    <path d="M73.5073 129.365C81.3037 159.56 198.577 281.541 239.083 248.487C242.216 245.434 244.466 231.946 228.395 202.414" stroke="#944682" stroke-width="17"/>
    <path d="M165.178 221.875C185.936 198.603 222.094 33.2999 172.097 18.0185C167.817 17.1121 155.356 22.7442 139.749 52.5241" stroke="#944682" stroke-width="17"/>
    <g filter="url(#filter1_f)">
        <circle cx="140.5" cy="152.5" r="99.5" stroke="#944682" stroke-width="18"/>
    </g>
    <defs>
        <filter id="filter0_i" x="32" y="44" width="217" height="221" filterUnits="userSpaceOnUse" color-interpolation-filters="sRGB">
            <feFlood flood-opacity="0" result="BackgroundImageFix"/>
            <feBlend mode="normal" in="SourceGraphic" in2="BackgroundImageFix" result="shape"/>
            <feColorMatrix in="SourceAlpha" type="matrix" values="0 0 0 0 0 0 0 0 0 0 0 0 0 0 0 0 0 0 127 0" result="hardAlpha"/>
            <feOffset dy="4"/>
            <feGaussianBlur stdDeviation="8"/>
            <feComposite in2="hardAlpha" operator="arithmetic" k2="-1" k3="1"/>
            <feColorMatrix type="matrix" values="0 0 0 0 0 0 0 0 0 0 0 0 0 0 0 0 0 0 0.25 0"/>
            <feBlend mode="normal" in2="shape" result="effect1_innerShadow"/>
        </filter>
        <filter id="filter1_f" x="28" y="40" width="225" height="225" filterUnits="userSpaceOnUse" color-interpolation-filters="sRGB">
            <feFlood flood-opacity="0" result="BackgroundImageFix"/>
            <feBlend mode="normal" in="SourceGraphic" in2="BackgroundImageFix" result="shape"/>
            <feGaussianBlur stdDeviation="2" result="effect1_foregroundBlur"/>
        </filter>
    </defs>
</svg>
